/* XPM */
static char *bigger[] = {
/* columns rows colors chars-per-pixel */
"16 14 34 1 ",
"  c #000000",
". c #010101",
"X c #020202",
"o c #030303",
"O c #040404",
"+ c #050505",
"@ c #060606",
"# c #070707",
"$ c #080808",
"% c #090909",
"& c #0A0A0A",
"* c #0B0B0B",
"= c #0C0C0C",
"- c #0D0D0D",
"; c #0E0E0E",
": c gray6",
"> c #101010",
", c #111111",
"< c #121212",
"1 c #131313",
"2 c #141414",
"3 c #151515",
"4 c #161616",
"5 c #171717",
"6 c #181818",
"7 c #191919",
"8 c #1A1A1A",
"9 c #1B1B1B",
"0 c #1C1C1C",
"q c #1D1D1D",
"w c #1E1E1E",
"e c #1F1F1F",
"r c #202020",
"t c #212121",
/* pixels */
"-+6te+ +--116tt-",
"% +ee1  %%%5te6%",
"651-516e6ee6-%  ",
"t6%+1--e56tt1+++",
"11-11%--++---%%1",
"%%-5e1-5+  +51-e",
"15511--1%++%%--1",
"5e5+  +%+-1e+   ",
"551-% +%%-6e1++%",
"% 5e%15%te-+-6e%",
"+ +1 %+ 155%565 ",
"155-15ee-ee%%%  ",
"15-%5ee6 -5 +   ",
"--665--%%%--1551"
};
